<svg width="224" height="44" viewBox="0 0 224 44" fill="none" xmlns="http://www.w3.org/2000/svg">
<path d="M53.7 29.1C53.7 32 51.4 34 48.2 34H42.4H40.7V17.4H44H46.6C49.7 17.4 51.9 19.3 51.9 22C51.9 23.3 51.4 24.3 50.6 25C52.6 25.7 53.7 27.1 53.7 29.1ZM44.1 20.3V24.1H46.4C47.8 24.1 48.6 23.3 48.6 22.2C48.6 21 47.8 20.3 46.4 20.3H44.1ZM50.4 29C50.4 27.7 49.5 26.9 48 26.9H44.1V31.1H48C49.5 31.1 50.4 30.3 50.4 29Z" fill="white"/>
<path d="M66.7 26.6V34H63.6V32.8C62.7 33.7 61.4 34.3 59.8 34.3C57.1 34.3 55.5 32.7 55.5 30.5C55.5 28.2 57.3 26.9 60.2 26.9H63.3V26.4C63.3 25 62.5 24.2 61 24.2C59.7 24.2 58.7 24.8 57.7 25.9L55.9 23.8C57.4 22.1 59.2 21.2 61.4 21.2C64.5 21.2 66.7 23 66.7 26.6ZM63.3 29.4V29.2H60.6C59.5 29.2 58.9 29.6 58.9 30.5C58.9 31.4 59.6 31.9 60.7 31.9C62.1 31.8 63.3 30.8 63.3 29.4Z" fill="white"/>
<path d="M83 27.8C83 31.6 80.5 34.3 76.9 34.3C75.2 34.3 73.8 33.6 72.9 32.4V34H69.8V15.1H73.2V22.8C74.1 21.9 75.4 21.3 77 21.3C80.5 21.2 83 24 83 27.8ZM79.6 27.8C79.6 25.7 78.1 24.4 76.4 24.4C74.8 24.4 73.3 25.5 73.3 27.8C73.3 30.2 74.9 31.2 76.4 31.2C78.1 31.2 79.6 29.9 79.6 27.8Z" fill="white"/>
<path d="M97.2 21.5L91.2 35.1C90.1 37.7 88.6 38.9 86.2 38.9C85.5 38.9 84.7 38.8 84 38.6V35.7C84.6 35.8 85.1 35.8 85.5 35.8C86.6 35.8 87.5 35.5 88.1 34.1L88.5 33.3L83.7 21.5H87.3L90.3 29.7L93.6 21.5H97.2Z" fill="white"/>
<path d="M101.9 15.1H98.5V34H101.9V15.1Z" fill="white"/>
<path d="M117.7 27.8C117.7 31.5 114.7 34.3 111 34.3C107.3 34.3 104.3 31.5 104.3 27.8C104.3 24.1 107.3 21.3 111 21.3C114.6 21.2 117.7 24.1 117.7 27.8ZM107.7 27.8C107.7 29.8 109 31.2 110.9 31.2C112.7 31.2 114.1 29.8 114.1 27.8C114.1 25.8 112.7 24.4 110.9 24.4C109 24.4 107.7 25.8 107.7 27.8Z" fill="white"/>
<path d="M131.4 26.3V34H128V26.7C128 25.3 127.1 24.3 125.7 24.3C124.3 24.3 123.3 25.3 123.3 26.7V34H119.9V21.5H123V22.7C123.9 21.8 125.1 21.3 126.7 21.3C129.7 21.2 131.4 23.3 131.4 26.3Z" fill="white"/>
<path d="M139.4 32C139.4 33.3 138.4 34.3 137.1 34.3C135.7 34.3 134.7 33.3 134.7 32C134.7 30.7 135.7 29.7 137.1 29.7C138.4 29.6 139.4 30.7 139.4 32Z" fill="#937DFF"/>
<path d="M147.3 14.8C148.1 14.8 148.7 14.9 149.2 15.1V18C148.8 17.9 148.5 17.9 148.2 17.9C146.7 17.9 145.9 18.4 145.9 19.9V21.6H148.6V24.5H145.9V34H142.5V24.4H140.7V21.5H142.5V19.5C142.5 16.3 144.4 14.8 147.3 14.8ZM150.4 17C150.4 15.8 151.4 14.9 152.6 14.9C153.8 14.9 154.8 15.8 154.8 17C154.8 18.2 153.8 19.1 152.6 19.1C151.4 19.1 150.4 18.2 150.4 17ZM150.9 21.5H154.3V34H150.9V21.5Z" fill="#937DFF"/>
<path d="M169.4 26.3V34H166V26.7C166 25.3 165.1 24.3 163.7 24.3C162.3 24.3 161.3 25.3 161.3 26.7V34H158V21.5H161.1V22.7C162 21.8 163.2 21.3 164.8 21.3C167.7 21.2 169.4 23.3 169.4 26.3Z" fill="#937DFF"/>
<path d="M182.8 26.6V34H179.7V32.8C178.8 33.7 177.5 34.3 175.9 34.3C173.2 34.3 171.6 32.7 171.6 30.5C171.6 28.2 173.4 26.9 176.3 26.9H179.4V26.4C179.4 25 178.6 24.2 177.1 24.2C175.8 24.2 174.8 24.8 173.8 25.9L172 23.8C173.5 22.1 175.3 21.2 177.5 21.2C180.6 21.2 182.8 23 182.8 26.6ZM179.4 29.4V29.2H176.7C175.6 29.2 175 29.6 175 30.5C175 31.4 175.7 31.9 176.8 31.9C178.2 31.8 179.4 30.8 179.4 29.4Z" fill="#937DFF"/>
<path d="M197 26.3V34H193.6V26.7C193.6 25.3 192.7 24.3 191.3 24.3C189.9 24.3 188.9 25.3 188.9 26.7V34H185.5V21.5H188.6V22.7C189.5 21.8 190.7 21.3 192.3 21.3C195.2 21.2 197 23.3 197 26.3Z" fill="#937DFF"/>
<path d="M210.7 24.3L208.3 26.1C207.6 25 206.7 24.3 205.3 24.3C203.3 24.3 202 25.8 202 27.7C202 29.7 203.3 31.1 205.3 31.1C206.7 31.1 207.6 30.3 208.3 29.3L210.7 31.1C209.7 33 207.7 34.2 205.3 34.2C201.5 34.2 198.6 31.3 198.6 27.6C198.6 23.9 201.6 21.1 205.3 21.1C207.8 21.2 209.7 22.5 210.7 24.3Z" fill="#937DFF"/>
<path d="M223.8 28.9H215C215.4 30.5 216.7 31.4 218.5 31.4C219.9 31.4 221 30.9 222 30.1L223.4 32.4C222 33.6 220.3 34.3 218.4 34.3C214.4 34.3 211.6 31.4 211.6 27.8C211.6 24.1 214.5 21.3 218.1 21.3C221.6 21.3 224 23.9 224 27.1C224 27.8 223.9 28.5 223.8 28.9ZM215 26.5H220.7C220.7 24.9 219.5 24 218 24C216.6 24 215.4 25 215 26.5Z" fill="#937DFF"/>
<path d="M22.9 19.1V35.6V43.8L30.5 39.2V14.5L22.9 19.1Z" fill="#937DFF"/>
<path d="M30.5 14.5L22.9 9.90002L15.3 14.5L22.9 19.1L30.5 14.5Z" fill="#FFBE44"/>
<path d="M7.59998 9.39999V19.1L15.3 14.5V4.79999L7.59998 9.39999Z" fill="#937DFF"/>
<path d="M15.3 4.80001L7.6 0.200012L0 4.80001L7.7 9.40001L15.3 4.80001Z" fill="#FFBE44"/>
<path d="M15.3 14.5H15.2L7.59998 19.1L15.3 23.7V14.5Z" fill="#FFBE44"/>
<path d="M15.3 30.7C15.3 28 13.9 25.4 11.5 24C9.80001 23 7.70001 24.2 7.70001 26.2V37.4L15.3 41.9V30.7Z" fill="#937DFF"/>
<path d="M15.3 32.9L15.2 32.8L7.59998 37.4L15.3 42V32.9Z" fill="#FFBE44"/>
</svg>
